<?xml version="1.0" encoding="UTF-8"?><svg id="Font" xmlns="http://www.w3.org/2000/svg" viewBox="0 0 659.37 443.43"><defs><style>.cls-1{fill:#fff;}.cls-2{fill:#f2bb30;}</style></defs><path class="cls-2" d="M469.12,283.94c-4.7-87.26-73.74-156.5-158.24-156.5s-153.53,69.24-158.24,156.5H469.12Z"/><rect class="cls-2" x="306.39" y="24.44" width="17" height="87" rx="7.48" ry="7.48"/><rect class="cls-2" x="220.39" y="41.42" width="17" height="87" rx="7.48" ry="7.48" transform="translate(-13.51 113.97) rotate(-27.19)"/><rect class="cls-2" x="156.39" y="83.44" width="17" height="87" rx="7.48" ry="7.48" transform="translate(-41.26 155.29) rotate(-45.42)"/><rect class="cls-2" x="107.39" y="146.43" width="17" height="87" rx="7.48" ry="7.48" transform="translate(-97.07 254.35) rotate(-75.44)"/><rect class="cls-2" x="85.4" y="222.46" width="17" height="87" rx="7.48" ry="7.48" transform="translate(-174.43 352.87) rotate(-88.5)"/><rect class="cls-2" x="359.73" y="77.41" width="87" height="17" rx="7.48" ry="7.48" transform="translate(142.56 405.33) rotate(-62.81)"/><rect class="cls-2" x="423.71" y="119.43" width="87" height="17" rx="7.48" ry="7.48" transform="translate(44.63 364.75) rotate(-44.58)"/><rect class="cls-2" x="472.75" y="182.44" width="87" height="17" rx="7.48" ry="7.48" transform="translate(-31.42 135.91) rotate(-14.56)"/><rect class="cls-2" x="494.69" y="258.42" width="87" height="17" rx="7.48" ry="7.48" transform="translate(-6.8 14.18) rotate(-1.5)"/><path class="cls-2" d="M455.39,366.69h0c0,4.28-3.47,7.75-7.75,7.75H171.64c-4.28,0-7.75-3.47-7.75-7.75h0c0-4.28,3.47-7.75,7.75-7.75H447.64c4.28,0,7.75,3.47,7.75,7.75Z"/><rect class="cls-2" x="187.39" y="381.44" width="249" height="16" rx="7.28" ry="7.28"/><rect class="cls-2" x="208.89" y="406.94" width="208.5" height="14.5" rx="6.34" ry="6.34"/><g><path class="cls-1" d="M38.64,298.61c0-1.3,.48-2.02,1.44-2.02h4.26c.96,0,1.49,.72,1.49,2.02v48.07c0,1.37-.53,2.02-1.49,2.02h-4.42c-.96,0-1.17-.29-1.49-1.08l-13.53-32.41v31.47c0,1.3-.48,2.02-1.44,2.02h-4.26c-.96,0-1.49-.72-1.49-2.02v-48.07c0-1.37,.53-2.02,1.49-2.02h4.42c.96,0,1.17,.29,1.49,1.08l13.53,32.41v-31.47Z"/><path class="cls-1" d="M76.2,341.84v4.84c0,1.3-.53,2.02-1.49,2.02h-20.99c-.96,0-1.49-.72-1.49-2.02v-48.07c0-1.37,.53-2.02,1.49-2.02h20.99c.96,0,1.49,.65,1.49,1.95v4.84c0,1.3-.53,2.02-1.49,2.02h-14.49c-.59,0-.8,.29-.8,1.08v10.75c0,.79,.21,1.08,.8,1.08h10.92c1.12,0,1.65,.65,1.65,1.95v4.84c0,1.3-.53,1.88-1.65,1.88h-10.92c-.59,0-.8,.29-.8,1.08v10.75c0,.79,.21,1.08,.8,1.08h14.49c.96,0,1.49,.65,1.49,1.95Z"/><path class="cls-1" d="M92.19,305.39c-2.98,0-4.53,2.02-4.53,6.06v22.37c0,4.04,1.55,6.06,4.53,6.06h7.35c.59,0,.8-.29,.8-1.08v-6.71c0-.79-.21-1.08-.8-1.08h-4c-.96,0-1.49-.72-1.49-2.02v-4.4c0-1.3,.53-1.95,1.49-1.95h10.5c.96,0,1.49,.65,1.49,2.02v22.01c0,1.37-.53,2.02-1.49,2.02h-4.26c-.96,0-1.44-.65-1.44-2.02v-.72c0-.65-.59-1.3-1.12-.72l-2.77,3.03c-.32,.36-.64,.43-.91,.43h-4.48c-6.71,0-10.6-5.27-10.6-14.36v-23.38c0-9.09,3.89-14.36,10.6-14.36h7.19c5.81,0,9.27,4.91,9.27,12.63v1.66c0,1.3-.53,2.02-1.49,2.02h-4.26c-.96,0-1.44-.72-1.44-2.02v-1.08c0-2.82-1.28-4.4-3.41-4.4h-4.74Z"/><path class="cls-1" d="M121.92,328.71c-.59,0-.8,.29-.8,1.08v16.89c0,1.3-.48,2.02-1.44,2.02h-4.32c-.96,0-1.44-.72-1.44-2.02v-48.07c0-1.3,.48-2.02,1.44-2.02h15.4c5.81,0,9.27,4.91,9.27,12.63v6.86c0,7.07-2.88,11.84-7.83,12.56l8.21,17.03c.16,.29,.32,.72,.32,1.15,0,1.08-.64,1.88-1.39,1.88h-5.22c-.43,0-.85-.22-1.12-.72l-9.11-19.27h-1.97Zm0-23.31c-.59,0-.8,.29-.8,1.08v12.34c0,.79,.21,1.08,.8,1.08h7.51c2.13,0,3.41-1.59,3.41-4.4v-5.7c0-2.82-1.28-4.4-3.41-4.4h-7.51Z"/><path class="cls-1" d="M151.81,296.59c.96,0,1.44,.65,1.44,2.02v48.07c0,1.3-.48,2.02-1.44,2.02h-4.26c-.96,0-1.49-.72-1.49-2.02v-48.07c0-1.37,.53-2.02,1.49-2.02h4.26Z"/><path class="cls-1" d="M166.84,338.81c0,.79,.21,1.08,.8,1.08h13.43c.96,0,1.49,.72,1.49,2.02v4.84c0,1.3-.53,1.95-1.49,1.95h-19.93c-.96,0-1.49-.65-1.49-2.02v-48.07c0-1.3,.53-2.02,1.49-2.02h4.26c.96,0,1.44,.72,1.44,2.02v40.2Z"/><path class="cls-1" d="M195.03,327.05c-5.81,0-9.27-4.91-9.27-12.63v-5.2c0-7.72,3.46-12.63,9.27-12.63h7.99c5.81,0,9.27,4.91,9.27,12.63v1.66c0,1.3-.53,2.02-1.49,2.02h-4.26c-.96,0-1.44-.72-1.44-2.02v-1.08c0-2.82-1.28-4.4-3.41-4.4h-5.33c-2.13,0-3.41,1.59-3.41,4.4v4.04c0,2.82,1.28,4.4,3.41,4.4h6.66c5.81,0,9.27,4.91,9.27,12.63v5.2c0,7.72-3.46,12.63-9.27,12.63h-7.99c-5.81,0-9.27-4.91-9.27-12.63v-1.66c0-1.3,.53-2.02,1.49-2.02h4.26c.96,0,1.44,.72,1.44,2.02v1.08c0,2.82,1.28,4.4,3.41,4.4h5.33c2.13,0,3.41-1.59,3.41-4.4v-4.04c0-2.81-1.28-4.4-3.41-4.4h-6.66Z"/><path class="cls-1" d="M236.21,348.7h-6.93c-6.71,0-10.6-5.27-10.6-14.36v-35.73c0-1.3,.53-2.02,1.49-2.02h4.26c.96,0,1.44,.72,1.44,2.02v35.22c0,4.04,1.55,6.06,4.53,6.06h4.69c2.98,0,4.53-2.02,4.53-6.06v-35.22c0-1.3,.48-2.02,1.44-2.02h4.26c.96,0,1.49,.72,1.49,2.02v35.73c0,9.09-3.89,14.36-10.6,14.36Z"/><path class="cls-1" d="M274.15,298.61c0-1.3,.48-2.02,1.44-2.02h4.26c.96,0,1.49,.72,1.49,2.02v48.07c0,1.37-.53,2.02-1.49,2.02h-4.42c-.96,0-1.17-.29-1.49-1.08l-13.53-32.41v31.47c0,1.3-.48,2.02-1.44,2.02h-4.26c-.96,0-1.49-.72-1.49-2.02v-48.07c0-1.37,.53-2.02,1.49-2.02h4.42c.96,0,1.17,.29,1.49,1.08l13.53,32.41v-31.47Z"/><path class="cls-1" d="M310.33,332.1v14.58c0,1.3-.48,2.02-1.44,2.02h-4.26c-.96,0-1.49-.72-1.49-2.02v-39.12c0-6.71,3.14-10.97,8.1-10.97h10.34c4.96,0,8.1,4.26,8.1,10.97v39.12c0,1.3-.53,2.02-1.49,2.02h-4.26c-.96,0-1.44-.72-1.44-2.02v-14.58c0-.79-.21-1.08-.8-1.08h-10.55c-.59,0-.8,.29-.8,1.08Zm12.15-11.04v-12.63c0-1.88-.85-3.03-2.24-3.03h-7.67c-1.39,0-2.24,1.16-2.24,3.03v12.63c0,.79,.21,1.08,.8,1.08h10.55c.59,0,.8-.29,.8-1.08Z"/><path class="cls-1" d="M336.07,346.68v-48.07c0-1.3,.48-2.02,1.44-2.02h15.4c6.71,0,10.6,5.27,10.6,14.36v23.38c0,9.09-3.89,14.36-10.6,14.36h-15.4c-.96,0-1.44-.72-1.44-2.02Zm15.72-6.79c2.98,0,4.53-2.02,4.53-6.06v-22.37c0-4.04-1.55-6.06-4.53-6.06h-7.73c-.59,0-.8,.29-.8,1.08v32.33c0,.79,.21,1.08,.8,1.08h7.73Z"/><path class="cls-1" d="M377.42,347.76l-10.39-49.29c-.21-.94,.32-1.88,.96-1.88h5.22c.75,0,1.28,.58,1.44,1.44l7.51,37.96,7.51-37.96c.16-.87,.69-1.44,1.44-1.44h5.01c.64,0,1.17,.94,.96,1.88l-10.39,49.29c-.16,.65-.37,.94-.8,.94h-7.67c-.43,0-.64-.29-.8-.94Z"/><path class="cls-1" d="M424.57,341.84v4.84c0,1.3-.53,2.02-1.49,2.02h-20.99c-.96,0-1.49-.72-1.49-2.02v-48.07c0-1.37,.53-2.02,1.49-2.02h20.99c.96,0,1.49,.65,1.49,1.95v4.84c0,1.3-.53,2.02-1.49,2.02h-14.49c-.59,0-.8,.29-.8,1.08v10.75c0,.79,.21,1.08,.8,1.08h10.92c1.12,0,1.65,.65,1.65,1.95v4.84c0,1.3-.53,1.88-1.65,1.88h-10.92c-.59,0-.8,.29-.8,1.08v10.75c0,.79,.21,1.08,.8,1.08h14.49c.96,0,1.49,.65,1.49,1.95Z"/><path class="cls-1" d="M449.78,298.61c0-1.3,.48-2.02,1.44-2.02h4.26c.96,0,1.49,.72,1.49,2.02v48.07c0,1.37-.53,2.02-1.49,2.02h-4.42c-.96,0-1.17-.29-1.49-1.08l-13.53-32.41v31.47c0,1.3-.48,2.02-1.44,2.02h-4.26c-.96,0-1.49-.72-1.49-2.02v-48.07c0-1.37,.53-2.02,1.49-2.02h4.42c.96,0,1.17,.29,1.49,1.08l13.53,32.41v-31.47Z"/><path class="cls-1" d="M472.26,348.7c-.96,0-1.44-.72-1.44-2.02v-40.2c0-.79-.21-1.08-.8-1.08h-7.3c-.96,0-1.49-.72-1.49-2.02v-4.84c0-1.3,.53-1.95,1.49-1.95h23.39c.96,0,1.49,.65,1.49,1.95v4.84c0,1.3-.53,2.02-1.49,2.02h-7.3c-.59,0-.8,.29-.8,1.08v40.2c0,1.3-.48,2.02-1.44,2.02h-4.32Z"/><path class="cls-1" d="M509.4,348.7h-6.93c-6.71,0-10.6-5.27-10.6-14.36v-35.73c0-1.3,.53-2.02,1.49-2.02h4.26c.96,0,1.44,.72,1.44,2.02v35.22c0,4.04,1.54,6.06,4.53,6.06h4.69c2.98,0,4.53-2.02,4.53-6.06v-35.22c0-1.3,.48-2.02,1.44-2.02h4.26c.96,0,1.49,.72,1.49,2.02v35.73c0,9.09-3.89,14.36-10.6,14.36Z"/><path class="cls-1" d="M534.39,328.71c-.59,0-.8,.29-.8,1.08v16.89c0,1.3-.48,2.02-1.44,2.02h-4.32c-.96,0-1.44-.72-1.44-2.02v-48.07c0-1.3,.48-2.02,1.44-2.02h15.4c5.81,0,9.27,4.91,9.27,12.63v6.86c0,7.07-2.88,11.84-7.83,12.56l8.21,17.03c.16,.29,.32,.72,.32,1.15,0,1.08-.64,1.88-1.39,1.88h-5.22c-.43,0-.85-.22-1.12-.72l-9.11-19.27h-1.97Zm0-23.31c-.59,0-.8,.29-.8,1.08v12.34c0,.79,.21,1.08,.8,1.08h7.51c2.13,0,3.41-1.59,3.41-4.4v-5.7c0-2.82-1.28-4.4-3.41-4.4h-7.51Z"/><path class="cls-1" d="M582.51,341.84v4.84c0,1.3-.53,2.02-1.49,2.02h-20.99c-.96,0-1.49-.72-1.49-2.02v-48.07c0-1.37,.53-2.02,1.49-2.02h20.99c.96,0,1.49,.65,1.49,1.95v4.84c0,1.3-.53,2.02-1.49,2.02h-14.49c-.59,0-.8,.29-.8,1.08v10.75c0,.79,.21,1.08,.8,1.08h10.92c1.12,0,1.65,.65,1.65,1.95v4.84c0,1.3-.53,1.88-1.65,1.88h-10.92c-.59,0-.8,.29-.8,1.08v10.75c0,.79,.21,1.08,.8,1.08h14.49c.96,0,1.49,.65,1.49,1.95Z"/><path class="cls-1" d="M596.04,327.05c-5.81,0-9.27-4.91-9.27-12.63v-5.2c0-7.72,3.46-12.63,9.27-12.63h7.99c5.81,0,9.27,4.91,9.27,12.63v1.66c0,1.3-.53,2.02-1.49,2.02h-4.26c-.96,0-1.44-.72-1.44-2.02v-1.08c0-2.82-1.28-4.4-3.41-4.4h-5.33c-2.13,0-3.41,1.59-3.41,4.4v4.04c0,2.82,1.28,4.4,3.41,4.4h6.66c5.81,0,9.27,4.91,9.27,12.63v5.2c0,7.72-3.46,12.63-9.27,12.63h-7.99c-5.81,0-9.27-4.91-9.27-12.63v-1.66c0-1.3,.53-2.02,1.49-2.02h4.26c.96,0,1.44,.72,1.44,2.02v1.08c0,2.82,1.28,4.4,3.41,4.4h5.33c2.13,0,3.41-1.59,3.41-4.4v-4.04c0-2.81-1.28-4.4-3.41-4.4h-6.66Z"/></g></svg>