<?xml version="1.0" encoding="UTF-8"?><svg id="Font" xmlns="http://www.w3.org/2000/svg" viewBox="0 0 602.52 397"><defs><style>.cls-1{fill:#f2bb30;}.cls-2{fill:#fff;font-family:Magion, Magion;font-size:52px;}</style></defs><path class="cls-1" d="M449.12,259.5c-4.7-87.26-73.74-156.5-158.24-156.5s-153.53,69.24-158.24,156.5H449.12Z"/><rect class="cls-1" x="286.39" width="17" height="87" rx="7.48" ry="7.48"/><rect class="cls-1" x="200.39" y="16.98" width="17" height="87" rx="7.48" ry="7.48" transform="translate(-4.55 102.13) rotate(-27.19)"/><rect class="cls-1" x="136.39" y="59" width="17" height="87" rx="7.48" ry="7.48" transform="translate(-29.82 133.76) rotate(-45.42)"/><rect class="cls-1" x="87.39" y="121.99" width="17" height="87" rx="7.48" ry="7.48" transform="translate(-88.39 216.7) rotate(-75.44)"/><rect class="cls-1" x="65.4" y="198.02" width="17" height="87" rx="7.48" ry="7.48" transform="translate(-169.48 309.07) rotate(-88.5)"/><rect class="cls-1" x="339.73" y="52.97" width="87" height="17" rx="7.48" ry="7.48" transform="translate(153.43 374.27) rotate(-62.81)"/><rect class="cls-1" x="403.7" y="94.99" width="87" height="17" rx="7.48" ry="7.48" transform="translate(56.03 343.67) rotate(-44.58)"/><rect class="cls-1" x="452.75" y="158" width="87" height="17" rx="7.48" ry="7.48" transform="translate(-25.92 130.1) rotate(-14.56)"/><rect class="cls-1" x="474.69" y="233.98" width="87" height="17" rx="7.48" ry="7.48" transform="translate(-6.17 13.65) rotate(-1.5)"/><path class="cls-1" d="M435.39,342.25h0c0,4.28-3.47,7.75-7.75,7.75H151.64c-4.28,0-7.75-3.47-7.75-7.75h0c0-4.28,3.47-7.75,7.75-7.75H427.64c4.28,0,7.75,3.47,7.75,7.75Z"/><rect class="cls-1" x="167.39" y="357" width="249" height="16" rx="7.28" ry="7.28"/><rect class="cls-1" x="188.89" y="382.5" width="208.5" height="14.5" rx="6.34" ry="6.34"/><text class="cls-2" transform="translate(0 316.56)"><tspan x="0" y="0">NEGRIL SUN ADVENTURES</tspan></text></svg>