<svg xmlns="http://www.w3.org/2000/svg" width="68.571" height="40" viewBox="0 0 68.571 40">
  <g id="menu-icon" transform="translate(-4.5 -10.125)">
    <path id="Path_4" data-name="Path 4" d="M70.214,15.839H7.357A2.866,2.866,0,0,1,4.5,12.982h0a2.866,2.866,0,0,1,2.857-2.857H70.214a2.866,2.866,0,0,1,2.857,2.857h0A2.866,2.866,0,0,1,70.214,15.839Z" transform="translate(0)" fill="#f7d90a"/>
    <path id="Path_5" data-name="Path 5" d="M70.214,22.589H7.357A2.866,2.866,0,0,1,4.5,19.732h0a2.866,2.866,0,0,1,2.857-2.857H70.214a2.866,2.866,0,0,1,2.857,2.857h0A2.866,2.866,0,0,1,70.214,22.589Z" transform="translate(0 10.393)" fill="#f7d90a"/>
    <path id="Path_6" data-name="Path 6" d="M70.214,29.339H7.357A2.866,2.866,0,0,1,4.5,26.482h0a2.866,2.866,0,0,1,2.857-2.857H70.214a2.866,2.866,0,0,1,2.857,2.857h0A2.866,2.866,0,0,1,70.214,29.339Z" transform="translate(0 20.786)" fill="#f7d90a"/>
  </g>
</svg>
